<?xml version="1.0" encoding="UTF-8" standalone="no"?>
<!DOCTYPE svg PUBLIC "-//W3C//DTD SVG 1.1//EN" "http://www.w3.org/Graphics/SVG/1.1/DTD/svg11.dtd">
<svg width="100%" height="100%" viewBox="0 0 1280 1024" version="1.1" xmlns="http://www.w3.org/2000/svg" xmlns:xlink="http://www.w3.org/1999/xlink" xml:space="preserve" style="fill-rule:evenodd;clip-rule:evenodd;stroke-linejoin:round;stroke-miterlimit:1.41421;">
    <g transform="matrix(20.6918,0,0,20.6918,-5220.98,-75860.6)">
        <path d="M307.157,3674.09C307.216,3674.1 307.276,3674.11 307.334,3674.12C307.452,3674.15 307.566,3674.18 307.675,3674.23C308.115,3674.43 308.458,3674.81 308.607,3675.27C308.644,3675.38 308.669,3675.5 308.682,3675.62C308.688,3675.68 308.688,3675.74 308.691,3675.8L308.691,3706.12C308.688,3706.18 308.688,3706.24 308.682,3706.3C308.669,3706.42 308.644,3706.54 308.607,3706.65C308.439,3707.17 308.025,3707.58 307.508,3707.75C307.394,3707.79 307.276,3707.81 307.157,3707.82C307.098,3707.83 307.038,3707.83 306.978,3707.83L259.523,3707.83C259.464,3707.83 259.404,3707.83 259.344,3707.82C259.225,3707.81 259.108,3707.79 258.994,3707.75C258.477,3707.58 258.063,3707.17 257.895,3706.65C257.858,3706.54 257.833,3706.42 257.82,3706.3C257.814,3706.24 257.814,3706.18 257.811,3706.12L257.811,3675.8C257.814,3675.74 257.814,3675.68 257.82,3675.62C257.833,3675.5 257.858,3675.38 257.895,3675.27C258.063,3674.75 258.477,3674.34 258.994,3674.17C259.108,3674.13 259.225,3674.11 259.344,3674.09C259.404,3674.09 259.464,3674.09 259.523,3674.08L306.978,3674.08C307.038,3674.09 307.098,3674.09 307.157,3674.09ZM261.236,3677.51L261.236,3704.41L305.266,3704.41L305.266,3677.51C290.589,3677.51 275.912,3677.51 261.236,3677.51Z" style="fill-rule:nonzero;"/>
        <path d="M307.347,3677.86C306.108,3679.28 304.827,3680.66 303.522,3682.01C301.87,3683.73 300.174,3685.41 298.422,3687.03C296.808,3688.52 295.145,3689.96 293.404,3691.3C291.927,3692.44 290.391,3693.51 288.753,3694.41C287.797,3694.93 286.801,3695.39 285.759,3695.71C285.026,3695.94 284.266,3696.1 283.498,3696.13C282.898,3696.15 282.297,3696.09 281.709,3695.97C280.416,3695.71 279.183,3695.19 278.021,3694.58C276.577,3693.82 275.216,3692.9 273.907,3691.93C271.84,3690.39 269.892,3688.7 268.013,3686.94C266.492,3685.52 265.015,3684.04 263.573,3682.54C262.233,3681.14 260.923,3679.71 259.651,3678.25L259.479,3678.05L262.074,3675.82C262.287,3676.06 262.501,3676.31 262.716,3676.55C265.081,3679.22 267.546,3681.8 270.139,3684.24C271.645,3685.66 273.196,3687.03 274.82,3688.31C275.892,3689.16 276.997,3689.97 278.155,3690.7C278.501,3690.92 278.852,3691.13 279.209,3691.33C280.018,3691.78 280.865,3692.19 281.754,3692.46C282.312,3692.63 282.898,3692.74 283.484,3692.7C283.942,3692.67 284.392,3692.56 284.828,3692.41C285.404,3692.23 285.961,3691.99 286.502,3691.72C287.227,3691.36 287.926,3690.95 288.607,3690.51C289.62,3689.86 290.595,3689.15 291.545,3688.41C293.357,3687 295.082,3685.47 296.754,3683.9C298.341,3682.41 299.881,3680.87 301.384,3679.3C302.536,3678.09 303.67,3676.86 304.767,3675.61C305.627,3676.36 306.487,3677.11 307.347,3677.86Z" style="fill-rule:nonzero;"/>
        <path d="M277.638,3692.24L261.913,3706.18L259.64,3703.62L275.366,3689.68C276.123,3690.53 276.881,3691.39 277.638,3692.24Z" style="fill-rule:nonzero;"/>
        <path d="M307.202,3703.63L304.913,3706.17L289.396,3692.23L291.685,3689.68C296.857,3694.33 302.029,3698.98 307.202,3703.63Z" style="fill-rule:nonzero;"/>
    </g>
</svg>
